# Blender v2.78 (sub 0) OBJ File: '17.blend'
# www.blender.org
mtllib Orca_01.mtl
o Orca_Cube.028
v 1.879104 3.348632 -6.559517
v 1.992805 6.141680 -6.559517
v 1.108674 4.743768 9.266856
v 0.697795 3.484286 9.550463
v 2.506241 4.317711 -6.559517
v 0.974650 3.846114 9.550463
v 1.230909 3.904949 9.162687
v -0.034838 2.984452 -6.559517
v -0.034838 6.393044 -6.559517
v 4.064474 0.390269 1.586158
v 2.012180 2.569293 5.621045
v 2.547023 6.466418 1.810801
v 2.215685 6.069320 5.604182
v 3.086195 4.056828 1.810801
v 2.602434 3.904949 5.604696
v 0.232995 8.451742 0.096765
v 2.002387 3.904949 7.344844
v 1.790164 5.422807 7.365654
v 0.205041 5.066012 -14.255835
v 0.715930 4.724539 -14.255835
v 0.660478 4.460053 -14.255835
v 0.604571 4.572199 10.185230
v 0.671319 3.904949 10.195397
v 2.404283 2.617163 -1.441507
v 3.086195 4.056828 -0.234618
v 3.086195 4.279902 -2.201708
v 2.547023 6.466418 -0.234617
v 2.547023 6.421073 -2.201707
v 2.162691 2.346874 2.734562
v 2.503824 2.617689 2.734562
v 2.368106 2.415250 2.976771
v 2.503824 2.617689 0.530462
v 2.162691 2.346874 0.481926
v 2.404284 2.392814 0.236005
v 4.276648 0.558707 1.586158
v 4.274828 0.343173 1.762281
v 4.276648 0.558707 0.270413
v 4.064474 0.390269 0.210801
v 4.297330 0.329218 0.014041
v 3.113583 1.368572 0.356556
v 3.309510 1.405828 0.157118
v 3.390236 1.588198 0.405092
v 3.390236 1.588198 2.267887
v 3.113583 1.368572 2.267887
v 3.280171 1.424024 2.464314
v 2.182279 4.421317 6.144477
v 2.156570 4.538691 6.186160
v 2.119160 4.588576 6.297009
v 2.091962 4.541750 6.412086
v 2.090910 4.425643 6.463982
v 2.116618 4.308270 6.422299
v 2.154029 4.258385 6.311450
v 2.181226 4.305210 6.196373
v 2.136594 4.423480 6.304229
v 2.372344 4.284154 6.373533
v 2.334934 4.334040 6.484382
v 2.309225 4.451413 6.526065
v 2.310277 4.567520 6.474168
v 2.337475 4.614346 6.359090
v 2.400594 4.447087 6.206560
v 2.374885 4.564461 6.248243
v 2.399541 4.330980 6.258455
v 2.354909 4.449250 6.366312
v 0.736713 3.874934 8.565059
v 0.723724 3.904949 8.705494
v 1.530543 3.904949 6.612455
v 1.177556 3.904949 7.636122
v 0.394537 3.904949 9.313000
v 0.232995 6.737357 1.112450
v 0.232494 6.779278 -1.202600
v 0.232494 7.997008 -1.433810
v 0.163319 9.920435 -1.768368
v 0.162968 9.676735 -2.222274
v 2.221897 3.796000 -6.559517
v 0.688204 4.592296 -14.255835
v 2.745239 3.509641 -2.201707
v 2.340882 5.229695 -6.559517
v 1.259118 4.324358 9.214772
v 2.498386 4.987134 5.604439
v 2.905936 5.261623 1.810801
v 1.985601 4.663878 7.355248
v 0.727271 4.238574 10.190313
v 0.549812 4.895276 -14.255835
v 2.905936 5.261623 -0.234617
v 2.905936 5.350488 -2.201707
v 0.205041 4.957568 -15.095959
v 2.822999 4.724539 -15.095959
v 2.767548 4.460053 -15.095959
v 2.944530 4.592296 -15.095959
v 4.472495 4.724539 -17.624557
v 0.510401 4.982776 -17.198023
v 3.962585 4.724539 -16.717678
v 3.907133 4.460053 -16.717678
v 4.084115 4.592296 -16.717678
v 0.510401 4.425440 -17.198023
v 4.417043 4.460053 -17.624557
v 4.594025 4.592296 -17.624557
v 4.444769 4.592296 -17.759766
v 0.510401 4.704108 -17.333231
v 2.726479 5.864020 1.810801
v 2.726479 5.885781 -2.201707
v 2.166844 5.685688 -6.559517
v 1.183896 4.534063 9.240814
v 2.427294 5.600842 5.341318
v 1.817624 4.970728 7.623443
v 0.665921 4.405386 10.187772
v 0.377426 4.980644 -14.255835
v 2.726479 5.864020 -0.234617
v 2.503824 2.617689 1.632512
v 2.162691 2.346874 1.608244
v 4.511524 0.297672 0.800391
v 4.298949 0.015788 0.769144
v 3.390236 1.588198 1.336489
v 3.113583 1.368572 1.312222
v 4.520264 -0.072741 0.749496
v -1.879104 3.348632 -6.559517
v -1.992805 6.141680 -6.559517
v -1.108674 4.743768 9.266856
v -0.697795 3.484286 9.550463
v -2.506241 4.317711 -6.559517
v -0.974650 3.846114 9.550463
v -1.230909 3.904949 9.162687
v 0.034838 2.984452 -6.559517
v 0.034838 6.393044 -6.559517
v 0.000000 4.425440 -14.255835
v 0.000000 5.174640 -14.255835
v 0.000000 3.484286 10.177621
v 0.000000 4.610546 10.614908
v 0.000000 3.904949 10.699590
v 0.000000 3.846114 10.177621
v -4.064474 0.390269 1.586158
v -2.012180 2.569293 5.621045
v -2.547023 6.466418 1.810801
v -2.215685 6.069320 5.604182
v -3.086195 4.056828 1.810801
v -2.602434 3.904949 5.604696
v 0.000000 2.192043 5.617394
v 0.000000 1.935625 2.734562
v 0.000000 6.438927 5.683499
v -0.232995 8.451742 0.096765
v 0.000000 5.816421 7.914492
v -2.002387 3.904949 7.344844
v -1.790164 5.422807 7.365654
v -0.205041 5.066012 -14.255835
v -0.715930 4.724539 -14.255835
v -0.660478 4.460053 -14.255835
v -0.604571 4.572199 10.185230
v -0.671319 3.904949 10.195397
v 0.000000 1.935625 0.689143
v 0.000000 2.282191 -2.201708
v -2.404283 2.617163 -1.441507
v -3.086195 4.056828 -0.234618
v -3.086195 4.279902 -2.201708
v -2.547023 6.466418 -0.234617
v -2.547023 6.421073 -2.201707
v 0.000000 8.562622 0.359474
v 0.000000 6.785330 -2.353399
v -2.162691 2.346874 2.734562
v -2.503824 2.617689 2.734562
v -2.368106 2.415250 2.976771
v -2.503824 2.617689 0.530462
v -2.162691 2.346874 0.481926
v -2.404284 2.392814 0.236005
v -4.276648 0.558707 1.586158
v -4.274828 0.343173 1.762281
v -4.276648 0.558707 0.270413
v -4.064474 0.390269 0.210801
v -4.297330 0.329218 0.014041
v -3.113583 1.368572 0.356556
v -3.309510 1.405828 0.157118
v -3.390236 1.588198 0.405092
v -3.390236 1.588198 2.267887
v -3.113583 1.368572 2.267887
v -3.280171 1.424024 2.464314
v -2.182279 4.421317 6.144477
v -2.156570 4.538691 6.186160
v -2.119160 4.588576 6.297009
v -2.091962 4.541750 6.412086
v -2.090910 4.425643 6.463982
v -2.116618 4.308270 6.422299
v -2.154029 4.258385 6.311450
v -2.181226 4.305210 6.196373
v -2.136594 4.423480 6.304229
v -2.372344 4.284154 6.373533
v -2.334934 4.334040 6.484382
v -2.309225 4.451413 6.526065
v -2.310277 4.567520 6.474168
v -2.337475 4.614346 6.359090
v -2.400594 4.447087 6.206560
v -2.374885 4.564461 6.248243
v -2.399541 4.330980 6.258455
v -2.354909 4.449250 6.366312
v -0.736713 3.874934 8.565059
v -0.723724 3.904949 8.705494
v 0.000000 3.904949 9.609598
v 0.000000 3.874934 8.933993
v -1.530543 3.904949 6.612455
v -1.177556 3.904949 7.636122
v -0.394537 3.904949 9.313000
v -0.232995 6.737357 1.112450
v 0.000000 6.740044 1.472929
v -0.232494 6.779278 -1.202600
v 0.000000 6.830674 -1.609804
v 0.000000 7.921917 -1.733125
v -0.232494 7.997008 -1.433810
v -0.163319 9.920435 -1.768368
v -0.162968 9.676735 -2.222274
v 0.000000 9.593023 -2.347641
v 0.000000 10.015094 -1.665765
v 0.000000 9.746592 -2.353142
v 0.000000 9.990293 -1.899236
v 0.000000 4.860682 10.054757
v 0.000000 5.246690 9.190338
v -2.221897 3.796000 -6.559517
v -0.688204 4.592296 -14.255835
v -2.745239 3.509641 -2.201707
v -2.340882 5.229695 -6.559517
v -1.259118 4.324358 9.214772
v 0.000000 4.257747 10.657248
v -2.498386 4.987134 5.604439
v -2.905936 5.261623 1.810801
v -1.985601 4.663878 7.355248
v -0.727271 4.238574 10.190313
v -0.549812 4.895276 -14.255835
v -2.905936 5.261623 -0.234617
v -2.905936 5.350488 -2.201707
v 0.000000 4.425440 -15.095959
v 0.000000 4.982776 -15.095959
v -0.205041 4.957568 -15.095959
v -2.822999 4.724539 -15.095959
v -2.767548 4.460053 -15.095959
v -2.944530 4.592296 -15.095959
v -4.472495 4.724539 -17.624557
v 0.000000 4.425440 -16.291142
v 0.000000 4.982776 -16.291142
v -0.510401 4.982776 -17.198023
v -3.962585 4.724539 -16.717678
v -3.907133 4.460053 -16.717678
v -4.084115 4.592296 -16.717678
v -0.510401 4.425440 -17.198023
v -4.417043 4.460053 -17.624557
v -4.594025 4.592296 -17.624557
v -4.444769 4.592296 -17.759766
v -0.510401 4.704108 -17.333231
v 0.000000 4.704108 -16.426350
v -2.726479 5.864020 1.810801
v -2.726479 5.885781 -2.201707
v -2.166844 5.685688 -6.559517
v -1.183896 4.534063 9.240814
v 0.000000 4.434146 10.636078
v -2.427294 5.600842 5.341318
v -1.817624 4.970728 7.623443
v -0.665921 4.405386 10.187772
v -0.377426 4.980644 -14.255835
v -2.726479 5.864020 -0.234617
v 0.000000 1.935625 1.711853
v -2.503824 2.617689 1.632512
v -2.162691 2.346874 1.608244
v -4.511524 0.297672 0.800391
v -4.298949 0.015788 0.769144
v -3.390236 1.588198 1.336489
v -3.113583 1.368572 1.312222
v -4.520264 -0.072741 0.749496
vn 0.9330 0.3327 -0.1375
vn 0.9994 0.0338 -0.0123
vn 0.9336 0.2858 -0.2159
vn 0.5671 0.1572 0.8085
vn 0.8671 0.2790 0.4126
vn 0.9849 0.1224 0.1226
vn 0.1571 0.9740 -0.1631
vn 0.1218 0.9925 0.0095
vn 0.8259 0.2686 0.4958
vn 0.1357 0.9869 -0.0867
vn 0.9584 0.2855 0.0000
vn 0.9270 -0.3751 0.0000
vn 0.1472 0.9888 -0.0240
vn 0.9876 0.1565 0.0124
vn 0.8798 -0.4199 -0.2228
vn 0.7674 0.3194 0.5560
vn 0.7573 0.6531 0.0043
vn 0.5844 0.5931 -0.5539
vn 0.5620 0.5609 -0.6079
vn 0.7578 0.6525 0.0000
vn 0.6975 0.3071 0.6475
vn -0.9557 -0.1128 -0.2718
vn 0.9557 0.1128 0.2718
vn -0.2941 0.3922 0.8716
vn 0.0083 0.9129 -0.4080
vn 0.2021 -0.9229 -0.3278
vn -0.2139 -0.3682 0.9048
vn -0.2021 0.9229 0.3277
vn 0.2138 0.3682 -0.9048
vn 0.2941 -0.3922 -0.8716
vn -0.0083 -0.9129 0.4080
vn 0.2252 0.9213 0.3169
vn 0.3297 0.8524 0.4058
vn 0.0224 0.9995 0.0243
vn 0.0000 -1.0000 0.0000
vn 0.8337 -0.0838 -0.5459
vn 0.1270 0.9878 0.0897
vn 1.0000 -0.0001 -0.0002
vn 0.7860 0.3188 0.5296
vn 0.4543 0.8859 -0.0941
vn 0.6035 0.7024 -0.3774
vn 0.6934 0.5821 0.4247
vn 0.7536 -0.2405 -0.6118
vn 0.6185 -0.0281 -0.7853
vn 0.3284 0.8624 0.3851
vn 0.3527 0.8600 0.3687
vn 0.8233 -0.5263 -0.2124
vn 0.8441 -0.5151 -0.1487
vn 0.9536 0.3008 0.0085
vn 0.9890 0.1480 0.0000
vn 0.8738 -0.1270 0.4695
vn 0.9494 0.0606 0.3082
vn 0.9685 0.2233 0.1099
vn 0.9267 -0.0289 0.3748
vn 0.5704 0.0102 0.8213
vn 0.8205 0.5250 -0.2263
vn 0.9768 0.1703 -0.1299
vn 0.9698 0.0618 0.2357
vn 0.6803 0.6252 0.3825
vn 0.3059 0.9372 -0.1675
vn 0.4408 0.8902 -0.1149
vn 0.3462 -0.2680 0.8991
vn 0.3565 0.1264 0.9257
vn 0.6540 0.6010 0.4595
vn 0.5517 -0.7384 0.3877
vn 0.0766 0.9965 0.0343
vn 0.0692 0.9968 0.0389
vn 0.1220 0.9925 0.0000
vn 0.1411 0.9727 0.1840
vn 0.5673 -0.7592 0.3190
vn -0.0640 0.5516 -0.8316
vn -0.8478 -0.2315 -0.4771
vn -0.8478 0.2315 -0.4771
vn -0.0961 -0.5427 -0.8344
vn 0.5714 0.5251 -0.6307
vn 0.4994 -0.6683 -0.5513
vn 0.8156 0.5219 -0.2499
vn 0.9420 0.3171 0.1097
vn 0.9537 0.3009 -0.0018
vn 0.8317 0.2714 0.4844
vn 0.8972 0.1974 0.3951
vn 0.5462 0.1545 0.8233
vn 0.9336 0.3329 -0.1327
vn 0.9516 0.1758 -0.2521
vn 0.7555 0.6551 -0.0044
vn -0.9330 0.3327 -0.1375
vn -0.9994 0.0338 -0.0123
vn -0.9336 0.2858 -0.2159
vn -0.5671 0.1572 0.8085
vn -0.8671 0.2790 0.4126
vn -0.9849 0.1224 0.1226
vn -0.1571 0.9740 -0.1631
vn -0.1218 0.9925 0.0095
vn -0.8259 0.2686 0.4958
vn -0.1357 0.9869 -0.0867
vn -0.9584 0.2855 0.0000
vn -0.9270 -0.3751 0.0000
vn -0.1472 0.9888 -0.0240
vn -0.9876 0.1565 0.0124
vn -0.8798 -0.4199 -0.2228
vn -0.7674 0.3194 0.5560
vn -0.7573 0.6531 0.0043
vn -0.5844 0.5931 -0.5539
vn -0.5620 0.5609 -0.6079
vn -0.7578 0.6525 0.0000
vn -0.6975 0.3071 0.6475
vn 0.9557 -0.1128 -0.2718
vn -0.9557 0.1128 0.2718
vn 0.2941 0.3922 0.8716
vn -0.0083 0.9129 -0.4080
vn -0.2021 -0.9229 -0.3278
vn 0.2139 -0.3682 0.9048
vn 0.2021 0.9229 0.3278
vn -0.2138 0.3682 -0.9048
vn -0.2941 -0.3922 -0.8716
vn 0.0083 -0.9129 0.4080
vn -0.2252 0.9213 0.3169
vn -0.3297 0.8524 0.4058
vn -0.0224 0.9995 0.0243
vn -0.8337 -0.0838 -0.5459
vn -0.1270 0.9878 0.0897
vn -1.0000 -0.0001 -0.0002
vn -0.7860 0.3188 0.5296
vn -0.4543 0.8859 -0.0941
vn -0.6035 0.7024 -0.3774
vn -0.6934 0.5821 0.4247
vn -0.7536 -0.2405 -0.6118
vn -0.6185 -0.0281 -0.7853
vn -0.3284 0.8624 0.3851
vn -0.3527 0.8600 0.3687
vn -0.8233 -0.5263 -0.2124
vn -0.8441 -0.5151 -0.1487
vn -0.9536 0.3008 0.0085
vn -0.9890 0.1480 0.0000
vn -0.8738 -0.1270 0.4695
vn -0.9494 0.0606 0.3082
vn -0.9685 0.2233 0.1099
vn -0.9267 -0.0289 0.3748
vn -0.5704 0.0102 0.8213
vn -0.8205 0.5250 -0.2263
vn -0.9768 0.1703 -0.1299
vn -0.9698 0.0618 0.2357
vn -0.6803 0.6252 0.3825
vn -0.3059 0.9372 -0.1675
vn -0.4408 0.8902 -0.1149
vn -0.3462 -0.2680 0.8991
vn -0.3565 0.1264 0.9257
vn -0.6540 0.6010 0.4595
vn -0.5517 -0.7384 0.3877
vn -0.0766 0.9965 0.0343
vn -0.0692 0.9968 0.0389
vn -0.1220 0.9925 0.0000
vn -0.1411 0.9727 0.1840
vn -0.5673 -0.7592 0.3190
vn 0.0640 0.5516 -0.8316
vn 0.8478 -0.2315 -0.4771
vn 0.8478 0.2315 -0.4771
vn 0.0961 -0.5427 -0.8344
vn -0.5714 0.5251 -0.6307
vn -0.4994 -0.6683 -0.5513
vn -0.8156 0.5219 -0.2499
vn -0.9420 0.3171 0.1097
vn -0.9537 0.3009 -0.0018
vn -0.8317 0.2714 0.4844
vn -0.8972 0.1974 0.3951
vn -0.5462 0.1545 0.8233
vn -0.9336 0.3329 -0.1327
vn -0.9516 0.1758 -0.2521
vn -0.7555 0.6551 -0.0044
vn 0.1848 -0.9700 -0.1577
vn 0.1868 -0.9824 0.0000
vn 0.8332 -0.4222 0.3572
vn 0.1943 -0.9416 0.2749
vn 0.5848 -0.2237 0.7797
vn 0.9264 -0.3546 0.1263
vn 0.9204 0.2373 0.3106
vn 0.1508 -0.9733 -0.1730
vn 0.1697 -0.9785 -0.1171
vn 0.8926 -0.4320 -0.1291
vn 0.9191 -0.3912 -0.0477
vn -0.7436 -0.6668 -0.0498
vn -0.6078 -0.4851 -0.6287
vn -0.4554 -0.7513 0.4777
vn -0.4380 -0.6967 0.5681
vn -0.5798 -0.4791 -0.6591
vn -0.7171 -0.6970 0.0000
vn 0.1867 -0.9786 0.0861
vn 0.0142 0.9996 0.0243
vn 0.9135 -0.4043 -0.0459
vn -0.3790 -0.8816 0.2814
vn 0.0202 -0.9995 0.0253
vn 0.0106 -0.9999 0.0043
vn 0.0094 -0.9999 0.0053
vn 0.9200 0.2372 0.3121
vn -0.4375 -0.8308 -0.3439
vn -0.7231 -0.6889 0.0499
vn -0.1848 -0.9700 -0.1577
vn -0.1868 -0.9824 0.0000
vn -0.8332 -0.4222 0.3572
vn -0.1943 -0.9416 0.2749
vn -0.5848 -0.2237 0.7797
vn -0.9264 -0.3546 0.1263
vn -0.9204 0.2373 0.3106
vn -0.1508 -0.9733 -0.1730
vn -0.1697 -0.9785 -0.1171
vn -0.8926 -0.4320 -0.1291
vn -0.9191 -0.3912 -0.0477
vn 0.7436 -0.6668 -0.0498
vn 0.6078 -0.4851 -0.6287
vn 0.4554 -0.7513 0.4777
vn 0.4380 -0.6967 0.5681
vn 0.5798 -0.4791 -0.6591
vn 0.7171 -0.6970 0.0000
vn -0.1867 -0.9786 0.0861
vn -0.0142 0.9996 0.0243
vn -0.9135 -0.4043 -0.0459
vn 0.3790 -0.8816 0.2814
vn -0.0202 -0.9995 0.0253
vn -0.0106 -0.9999 0.0043
vn -0.0094 -0.9999 0.0053
vn -0.9200 0.2372 0.3121
vn 0.4375 -0.8308 -0.3439
vn 0.7231 -0.6889 0.0499
usemtl 1A1A1A
s off
f 102//1 2//1 28//1 101//1
f 16//2 71//2 73//2 72//2
f 77//3 5//3 20//3 83//3
f 106//4 22//4 128//4 250//4
f 105//5 18//5 3//5 103//5
f 79//6 15//6 14//6 80//6
f 9//7 2//7 19//7 126//7
f 27//8 70//8 69//8 12//8
f 103//9 3//9 22//9 106//9
f 2//10 9//10 157//10 28//10
f 108//11 27//11 12//11 100//11
f 32//12 25//12 30//12 109//12
f 27//13 28//13 157//13 203//13 70//13
f 84//14 25//14 26//14 85//14
f 75//15 20//15 5//15 74//15
f 43//16 45//16 36//16 35//16
f 113//17 43//17 35//17 111//17
f 41//18 42//18 37//18 39//18
f 34//19 32//19 42//19 41//19
f 109//20 30//20 43//20 113//20
f 30//21 31//21 45//21 43//21
f 49//22 54//22 50//22
f 47//22 54//22 48//22
f 52//22 54//22 53//22
f 50//22 54//22 51//22
f 48//22 54//22 49//22
f 46//22 54//22 47//22
f 53//22 54//22 46//22
f 51//22 54//22 52//22
f 58//23 57//23 63//23
f 61//23 59//23 63//23
f 55//23 62//23 63//23
f 57//23 56//23 63//23
f 59//23 58//23 63//23
f 60//23 61//23 63//23
f 62//23 60//23 63//23
f 56//23 55//23 63//23
f 49//24 50//24 57//24 58//24
f 47//25 48//25 59//25 61//25
f 52//26 53//26 62//26 55//26
f 50//27 51//27 56//27 57//27
f 48//28 49//28 58//28 59//28
f 46//29 47//29 61//29 60//29
f 53//30 46//30 60//30 62//30
f 51//31 52//31 55//31 56//31
f 13//32 139//32 141//32 18//32
f 141//33 213//33 3//33 18//33
f 6//34 15//34 66//34 64//34
f 7//35 23//35 68//35 65//35
f 23//35 129//35 195//35 68//35
f 15//35 17//35 67//35 66//35
f 17//35 7//35 65//35 67//35
f 70//36 203//36 204//36 71//36
f 12//37 69//37 201//37 139//37 13//37
f 69//38 70//38 71//38 16//38
f 201//39 69//39 16//39 156//39
f 72//40 211//40 209//40
f 72//41 73//41 210//41 211//41
f 156//42 16//42 72//42 209//42
f 71//43 204//43 208//43 73//43
f 208//44 210//44 73//44
f 22//45 212//45 128//45
f 3//46 213//46 212//46 22//46
f 21//47 75//47 74//47 1//47
f 1//48 74//48 76//48 24//48
f 108//49 84//49 85//49 101//49
f 25//50 84//50 80//50 14//50
f 7//51 78//51 82//51 23//51
f 15//52 79//52 81//52 17//52
f 104//53 79//53 80//53 100//53
f 17//54 81//54 78//54 7//54
f 23//55 82//55 219//55 129//55
f 102//56 77//56 83//56 107//56
f 5//57 77//57 85//57 26//57
f 115//58 111//58 35//58 36//58
f 92//59 94//59 97//59 90//59
f 126//60 19//60 86//60 228//60
f 19//61 107//61 83//61 86//61
f 75//62 21//62 88//62 89//62
f 20//63 75//63 89//63 87//63
f 87//64 89//64 94//64 92//64
f 89//65 88//65 93//65 94//65
f 235//66 86//66 87//66 92//66
f 235//67 92//67 90//67 91//67
f 228//68 86//68 235//68
f 86//69 83//69 20//69 87//69
f 94//70 93//70 96//70 97//70
f 98//71 99//71 91//71 90//71
f 99//72 95//72 234//72 245//72
f 91//73 99//73 245//73 235//73
f 96//74 95//74 99//74 98//74
f 90//75 97//75 98//75
f 96//76 98//76 97//76
f 2//77 102//77 107//77 19//77
f 13//78 104//78 100//78 12//78
f 27//79 108//79 101//79 28//79
f 84//11 108//11 100//11 80//11
f 78//80 103//80 106//80 82//80
f 81//81 105//81 103//81 78//81
f 82//82 106//82 250//82 219//82
f 77//83 102//83 101//83 85//83
f 30//12 25//12 14//12
f 39//84 37//84 111//84 115//84
f 32//20 109//20 113//20 42//20
f 42//85 113//85 111//85 37//85
f 248//86 247//86 155//86 117//86
f 140//87 206//87 207//87 205//87
f 217//88 224//88 145//88 120//88
f 253//89 250//89 128//89 147//89
f 252//90 249//90 118//90 143//90
f 220//91 221//91 135//91 136//91
f 124//92 126//92 144//92 117//92
f 154//93 133//93 200//93 202//93
f 249//94 253//94 147//94 118//94
f 117//95 155//95 157//95 124//95
f 255//96 246//96 133//96 154//96
f 161//97 257//97 159//97 152//97
f 154//98 202//98 203//98 157//98 155//98
f 225//99 226//99 153//99 152//99
f 215//100 214//100 120//100 145//100
f 172//101 164//101 165//101 174//101
f 261//102 259//102 164//102 172//102
f 170//103 168//103 166//103 171//103
f 163//104 170//104 171//104 161//104
f 257//105 261//105 172//105 159//105
f 159//106 172//106 174//106 160//106
f 178//107 179//107 183//107
f 176//107 177//107 183//107
f 181//107 182//107 183//107
f 179//107 180//107 183//107
f 177//107 178//107 183//107
f 175//107 176//107 183//107
f 182//107 175//107 183//107
f 180//107 181//107 183//107
f 187//108 192//108 186//108
f 190//108 192//108 188//108
f 184//108 192//108 191//108
f 186//108 192//108 185//108
f 188//108 192//108 187//108
f 189//108 192//108 190//108
f 191//108 192//108 189//108
f 185//108 192//108 184//108
f 178//109 187//109 186//109 179//109
f 176//110 190//110 188//110 177//110
f 181//111 184//111 191//111 182//111
f 179//112 186//112 185//112 180//112
f 177//113 188//113 187//113 178//113
f 175//114 189//114 190//114 176//114
f 182//115 191//115 189//115 175//115
f 180//116 185//116 184//116 181//116
f 134//117 143//117 141//117 139//117
f 141//118 143//118 118//118 213//118
f 121//119 193//119 197//119 136//119
f 122//35 194//35 199//35 148//35
f 148//35 199//35 195//35 129//35
f 136//35 197//35 198//35 142//35
f 142//35 198//35 194//35 122//35
f 202//120 205//120 204//120 203//120
f 133//121 134//121 139//121 201//121 200//121
f 200//122 140//122 205//122 202//122
f 201//123 156//123 140//123 200//123
f 206//124 209//124 211//124
f 206//125 211//125 210//125 207//125
f 156//126 209//126 206//126 140//126
f 205//127 207//127 208//127 204//127
f 208//128 207//128 210//128
f 147//129 128//129 212//129
f 118//130 147//130 212//130 213//130
f 146//131 116//131 214//131 215//131
f 116//132 151//132 216//132 214//132
f 255//133 247//133 226//133 225//133
f 152//134 135//134 221//134 225//134
f 122//135 148//135 223//135 218//135
f 136//136 142//136 222//136 220//136
f 251//137 246//137 221//137 220//137
f 142//138 122//138 218//138 222//138
f 148//139 129//139 219//139 223//139
f 248//140 254//140 224//140 217//140
f 120//141 153//141 226//141 217//141
f 263//142 165//142 164//142 259//142
f 237//143 233//143 242//143 239//143
f 126//144 228//144 229//144 144//144
f 144//145 229//145 224//145 254//145
f 215//146 232//146 231//146 146//146
f 145//147 230//147 232//147 215//147
f 230//148 237//148 239//148 232//148
f 232//149 239//149 238//149 231//149
f 235//150 237//150 230//150 229//150
f 235//151 236//151 233//151 237//151
f 228//152 235//152 229//152
f 229//153 230//153 145//153 224//153
f 239//154 242//154 241//154 238//154
f 243//155 233//155 236//155 244//155
f 244//156 245//156 234//156 240//156
f 236//157 235//157 245//157 244//157
f 241//158 243//158 244//158 240//158
f 233//159 243//159 242//159
f 241//160 242//160 243//160
f 117//161 144//161 254//161 248//161
f 134//162 133//162 246//162 251//162
f 154//163 155//163 247//163 255//163
f 225//96 221//96 246//96 255//96
f 218//164 223//164 253//164 249//164
f 222//165 218//165 249//165 252//165
f 223//166 219//166 250//166 253//166
f 217//167 226//167 247//167 248//167
f 159//97 135//97 152//97
f 168//168 263//168 259//168 166//168
f 161//105 171//105 261//105 257//105
f 171//169 166//169 259//169 261//169
usemtl FFFFFF
f 8//170 1//170 24//170 150//170
f 256//171 110//171 29//171 138//171
f 11//172 15//172 6//172 4//172
f 137//173 11//173 4//173 127//173
f 4//174 6//174 130//174 127//174
f 15//175 11//175 31//175 30//175 14//175
f 104//176 13//176 18//176 105//176
f 1//177 8//177 125//177 21//177
f 34//178 33//178 149//178 150//178 24//178
f 74//179 5//179 26//179 76//179
f 25//180 32//180 34//180 24//180 76//180
f 114//181 40//181 38//181 112//181
f 40//182 41//182 39//182 38//182
f 45//183 44//183 10//183 36//183
f 31//184 29//184 44//184 45//184
f 33//185 34//185 41//185 40//185
f 110//186 33//186 40//186 114//186
f 138//187 29//187 31//187 11//187 137//187
f 130//188 6//188 64//188 196//188
f 76//189 26//189 25//189
f 112//190 115//190 36//190 10//190
f 21//191 125//191 227//191 88//191
f 88//192 227//192 234//192 93//192
f 93//193 234//193 95//193 96//193
f 79//194 104//194 105//194 81//194
f 38//195 39//195 115//195 112//195
f 29//186 110//186 114//186 44//186
f 44//196 114//196 112//196 10//196
f 149//171 33//171 110//171 256//171
f 123//197 150//197 151//197 116//197
f 256//198 138//198 158//198 258//198
f 132//199 119//199 121//199 136//199
f 137//200 127//200 119//200 132//200
f 119//201 127//201 130//201 121//201
f 136//202 135//202 159//202 160//202 132//202
f 251//203 252//203 143//203 134//203
f 116//204 146//204 125//204 123//204
f 163//205 151//205 150//205 149//205 162//205
f 214//206 216//206 153//206 120//206
f 152//207 216//207 151//207 163//207 161//207
f 262//208 260//208 167//208 169//208
f 169//209 167//209 168//209 170//209
f 174//210 165//210 131//210 173//210
f 160//211 174//211 173//211 158//211
f 162//212 169//212 170//212 163//212
f 258//213 262//213 169//213 162//213
f 138//214 137//214 132//214 160//214 158//214
f 130//215 196//215 193//215 121//215
f 216//216 152//216 153//216
f 260//217 131//217 165//217 263//217
f 146//218 231//218 227//218 125//218
f 231//219 238//219 234//219 227//219
f 238//220 241//220 240//220 234//220
f 220//221 222//221 252//221 251//221
f 167//222 260//222 263//222 168//222
f 158//213 173//213 262//213 258//213
f 173//223 131//223 260//223 262//223
f 149//198 256//198 258//198 162//198
